<svg width="43.575" height="38.298" xmlns="http://www.w3.org/2000/svg">

 <g>
  <title>Layer 1</title>
  <g fill="white" id="svg_1">
   <g id="svg_2">
    <path id="svg_3" d="m14.039,25.533l23.153,0a1.277,1.277 0 0 0 1.227,-0.926l5.106,-17.873a1.277,1.277 0 0 0 -1.225,-1.628l-31.2,0l-0.917,-4.106a1.277,1.277 0 0 0 -1.246,-1l-7.66,0a1.277,1.277 0 1 0 0,2.553l6.635,0l4.609,20.742a3.829,3.829 0 0 0 1.521,7.344l23.15,0a1.277,1.277 0 1 0 0,-2.553l-23.149,0a1.276,1.276 0 0 1 0,-2.553l-0.004,0zm26.567,-17.873l-4.377,15.319l-21.162,0l-3.4,-15.319l28.939,0z"/>
    <path id="svg_4" d="m12.76601,34.46901a3.83,3.83 0 1 0 3.83,-3.83a3.834,3.834 0 0 0 -3.83,3.83zm3.83,-1.277a1.277,1.277 0 1 1 -1.277,1.277a1.278,1.278 0 0 1 1.277,-1.277z"/>
    <path id="svg_5" d="m30.80899,34.46901a3.83,3.83 0 1 0 3.83,-3.83a3.834,3.834 0 0 0 -3.83,3.83zm3.83,-1.277a1.277,1.277 0 1 1 -1.277,1.277a1.278,1.278 0 0 1 1.277,-1.277z"/>
   </g>
  </g>
 </g>
</svg>